<svg width="16" height="16" viewBox="0 0 16 16" fill="none" xmlns="http://www.w3.org/2000/svg">
<path d="M7.99105 0C3.58471 0 0 3.58219 0 7.98511C0 12.3882 3.58486 15.9702 7.99105 15.9702C12.3973 15.9702 15.9821 12.388 15.9821 7.98511C15.9821 3.58219 12.3974 0 7.99105 0ZM12.8586 6.32663L7.63662 11.5447C7.3739 11.8071 7.02977 11.9383 6.68549 11.9383C6.34122 11.9383 5.99708 11.8071 5.73437 11.5447L3.12339 8.93567C2.5981 8.41077 2.5981 7.55973 3.12339 7.03483C3.64882 6.51008 4.50021 6.51008 5.02564 7.03483L6.68549 8.69359L10.9563 4.4258C11.4818 3.90104 12.3331 3.90104 12.8586 4.4258C13.3839 4.95069 13.3839 5.80173 12.8586 6.32663Z" fill="#23CC7B"/>
</svg>
