<svg width="17" height="21" viewBox="0 0 17 21" fill="none" xmlns="http://www.w3.org/2000/svg">
<path d="M1.59597 3.81391L2.22967 6.51298L1.59597 9.20032L3.95473 10.6555L5.39815 13.0142L8.09722 12.3805L10.7963 13.0142L12.2397 10.6555L14.5985 9.20032L13.9648 6.51298L14.5985 3.81391L12.2515 2.35876L10.7963 0L8.09722 0.645431L5.40988 0.0117351L3.943 2.35876L1.59597 3.81391ZM8.10896 11.254C6.86402 11.254 5.67007 10.7594 4.78977 9.87911C3.90947 8.99881 3.41492 7.80486 3.41492 6.55992C3.41492 5.31499 3.90947 4.12104 4.78977 3.24074C5.67007 2.36043 6.86402 1.86588 8.10896 1.86588C10.6907 1.86588 12.7913 3.96647 12.7913 6.54819C12.7913 9.15338 10.6907 11.254 8.10896 11.254ZM8.08549 10.0805C6.13746 10.0805 4.57669 8.50795 4.57669 6.55992C4.57669 4.62363 6.13746 3.03939 8.08549 3.03939C10.0335 3.03939 11.6178 4.62363 11.6178 6.55992C11.6178 8.50795 10.0335 10.0805 8.08549 10.0805ZM12.5918 11.3713L11.0897 14L8.64877 13.4484L11.6178 20.29L13.2607 17.7083H16.1944L12.5918 11.3713ZM3.55574 11.4535L5.02263 14.0939L7.5222 13.4954L4.57669 20.29L2.93378 17.7083H0L3.55574 11.4535Z" fill="#23CC7B"/>
</svg>
