<svg width="24" height="24" viewBox="0 0 24 24" fill="none" xmlns="http://www.w3.org/2000/svg">
<circle cx="12" cy="12" r="12" fill="#292E50"/>
<path d="M16.9999 11.5H8.20689L10.8534 8.85351C10.9011 8.80739 10.9392 8.75221 10.9654 8.69121C10.9916 8.63021 11.0054 8.5646 11.006 8.49821C11.0066 8.43182 10.9939 8.36598 10.9688 8.30453C10.9437 8.24308 10.9065 8.18726 10.8596 8.14031C10.8126 8.09337 10.7568 8.05624 10.6954 8.0311C10.6339 8.00596 10.5681 7.99331 10.5017 7.99388C10.4353 7.99446 10.3697 8.00825 10.3087 8.03446C10.2477 8.06066 10.1925 8.09876 10.1464 8.14651L6.64639 11.6465C6.55266 11.7403 6.5 11.8674 6.5 12C6.5 12.1326 6.55266 12.2597 6.64639 12.3535L10.1464 15.8535C10.2407 15.9446 10.367 15.995 10.4981 15.9938C10.6292 15.9927 10.7546 15.9401 10.8473 15.8474C10.94 15.7547 10.9926 15.6293 10.9937 15.4982C10.9949 15.3671 10.9445 15.2408 10.8534 15.1465L8.20689 12.5H16.9999C17.1325 12.5 17.2597 12.4473 17.3534 12.3536C17.4472 12.2598 17.4999 12.1326 17.4999 12C17.4999 11.8674 17.4472 11.7402 17.3534 11.6465C17.2597 11.5527 17.1325 11.5 16.9999 11.5Z" fill="white"/>
</svg>
