<svg width="22" height="19" viewBox="0 0 22 19" fill="none" xmlns="http://www.w3.org/2000/svg">
<path d="M13.4621 5.94707e-06C14.1374 -7.44044e-05 14.8008 0.17764 15.3857 0.515281C15.9705 0.852923 16.4561 1.33859 16.7937 1.92345C17.1313 2.5083 17.309 3.17174 17.3089 3.84704C17.3087 4.52234 17.1308 5.18571 16.793 5.77044L21.1547 5.76948V7.69264H19.2316V17.3084C19.2316 17.5634 19.1303 17.808 18.9499 17.9884C18.7696 18.1687 18.525 18.27 18.27 18.27H2.88474C2.62971 18.27 2.38513 18.1687 2.2048 17.9884C2.02447 17.808 1.92316 17.5634 1.92316 17.3084V7.69264H0V5.76948L4.36172 5.77044C3.88465 4.94433 3.73159 3.97042 3.93226 3.0378C4.13294 2.10518 4.67303 1.28041 5.44766 0.723644C6.2223 0.166875 7.1762 -0.0821613 8.12414 0.0248903C9.07208 0.131942 9.94641 0.587442 10.5774 1.30295C10.9376 0.892718 11.3813 0.564235 11.8788 0.339518C12.3764 0.114801 12.9162 -0.000956048 13.4621 5.94707e-06ZM11.5389 7.69264H9.61579V17.3084H11.5389V7.69264ZM7.69263 1.92316C7.19359 1.92093 6.71322 2.11277 6.353 2.45817C5.99279 2.80356 5.78094 3.27545 5.76222 3.77414C5.7435 4.27284 5.91936 4.75929 6.25266 5.13072C6.58596 5.50215 7.05059 5.72947 7.54839 5.76467L7.69263 5.76948H9.61579V3.84632C9.61581 3.38674 9.45125 2.94236 9.15191 2.59363C8.85258 2.24491 8.43826 2.01491 7.98399 1.94528L7.83591 1.92797L7.69263 1.92316ZM13.4621 1.92316C12.9769 1.92301 12.5096 2.10625 12.1538 2.43616C11.7981 2.76607 11.5801 3.21826 11.5438 3.70208L11.5389 3.84632V5.76948H13.4621C13.9473 5.76963 14.4146 5.58639 14.7704 5.25648C15.1261 4.92657 15.3441 4.47438 15.3805 3.99056L15.3853 3.84632C15.3853 3.33627 15.1826 2.8471 14.822 2.48644C14.4613 2.12578 13.9722 1.92316 13.4621 1.92316Z" fill="#FFD166"/>
</svg>
