<svg width="20" height="20" viewBox="0 0 20 20" fill="none" xmlns="http://www.w3.org/2000/svg">
<path d="M7.01714 6.20059L6.33941 5.52287C7.19727 4.82007 8.25989 4.35887 9.42266 4.24306V5.21875V5.26875H9.47266H10.5273H10.5773V5.21875V4.24306C11.7401 4.35887 12.8027 4.82007 13.6606 5.52287L12.9829 6.20059L12.9475 6.23595L12.9829 6.2713L13.7287 7.01714L13.7641 7.05249L13.7994 7.01714L14.4771 6.33942C15.1798 7.19728 15.6411 8.25989 15.7569 9.42266H14.7812H14.7312V9.47266V10.5269V10.5769H14.7812H15.7566C15.6343 11.8026 15.1257 12.9646 14.3109 13.8753C12.9969 13.0393 11.4886 12.6219 10 12.6219C8.51457 12.6219 7.00581 13.0375 5.68907 13.8753C4.87425 12.9646 4.36573 11.8029 4.24335 10.5773H5.21875H5.26875V10.5273V9.47266V9.42266H5.21875H4.24306C4.35887 8.25989 4.82007 7.19727 5.52287 6.33941L6.20059 7.01714L6.23595 7.05249L6.2713 7.01714L7.01714 6.2713L7.05249 6.23595L7.01714 6.20059ZM10 19.05C14.9833 19.05 19.05 14.9829 19.05 10C19.05 5.01673 14.9829 0.95 10 0.95C5.01673 0.95 0.95 5.01714 0.95 10C0.95 14.9833 5.01714 19.05 10 19.05ZM10 17.8953C8.06148 17.8953 6.28411 17.1927 4.90849 16.0292C6.19317 14.6103 8.05786 13.7766 10 13.7766C11.9421 13.7766 13.8068 14.6103 15.0915 16.0292C13.7159 17.1927 11.9385 17.8953 10 17.8953ZM10 2.10469C14.3535 2.10469 17.8953 5.64654 17.8953 10C17.8953 11.9999 17.1476 13.8281 15.9172 15.2209C15.7055 14.9898 15.4793 14.7711 15.2409 14.566C16.3275 13.3127 16.9406 11.6825 16.9406 10C16.9406 6.18828 13.8121 3.05938 10 3.05938C6.18828 3.05938 3.05938 6.18787 3.05938 10C3.05938 11.6825 3.67253 13.3127 4.75908 14.566C4.52067 14.7711 4.29449 14.9898 4.08276 15.2209C2.85239 13.8281 2.10469 11.9999 2.10469 10C2.10469 5.64654 5.64654 2.10469 10 2.10469Z" fill="white" stroke="white" stroke-width="0.1"/>
<path d="M8.41797 14.7312H8.36797V14.7812V15.8359V15.8859H8.41797H11.582H11.632V15.8359V14.7812V14.7312H11.582H8.41797Z" fill="white" stroke="white" stroke-width="0.1"/>
<path d="M10.8217 8.58935L10.8219 8.58904L10.8163 8.5865L6.84931 6.7831L6.7279 6.72791L6.7831 6.84931L8.58664 10.8162L8.5863 10.8164L8.58949 10.8216L8.60607 10.8487C8.90491 11.3392 9.42632 11.6321 10.0002 11.6321C10.9002 11.6321 11.6323 10.9 11.6323 10.0001C11.6323 9.42618 11.3393 8.90477 10.8488 8.60594L10.8217 8.58935ZM9.05379 9.05353L10.2717 9.60724C10.4012 9.69675 10.4776 9.84136 10.4776 10.0001C10.4776 10.2632 10.2633 10.4774 10.0002 10.4774C9.8415 10.4774 9.69689 10.4011 9.60738 10.2715L9.05379 9.05353Z" fill="white" stroke="white" stroke-width="0.1"/>
</svg>
