<svg width="22" height="22" viewBox="0 0 22 22" fill="none" xmlns="http://www.w3.org/2000/svg">
<path d="M11.6914 8.93359H17.3867C17.5469 8.93359 17.6797 8.80078 17.6797 8.64062C17.6797 8.48047 17.5469 8.34766 17.3867 8.34766H11.6914C11.5313 8.34766 11.3984 8.48047 11.3984 8.64062C11.3984 8.80078 11.5273 8.93359 11.6914 8.93359Z" fill="white" stroke="white" stroke-width="0.21" stroke-miterlimit="10"/>
<path d="M11.6914 7.25H17.3867C17.5469 7.25 17.6797 7.11719 17.6797 6.95703C17.6797 6.79688 17.5469 6.66406 17.3867 6.66406H11.6914C11.5313 6.66406 11.3984 6.79688 11.3984 6.95703C11.3984 7.11719 11.5273 7.25 11.6914 7.25Z" fill="white" stroke="white" stroke-width="0.21" stroke-miterlimit="10"/>
<path d="M8.79297 9.37109C9.33203 9.37109 9.76953 8.93359 9.76953 8.39453V4.0625C9.76953 3.52344 9.33203 3.08594 8.79297 3.08594H5.30078C4.76172 3.08594 4.32422 3.52344 4.32422 4.0625V8.39453C4.32422 8.93359 4.76172 9.37109 5.30078 9.37109H8.79297ZM5.30078 3.66797H8.79297C9.00781 3.66797 9.18359 3.84375 9.18359 4.05859V7.55859C8.91016 7.25 8.57031 7 8.1875 6.83203C8.33984 6.60938 8.42969 6.33984 8.42969 6.05469C8.42969 5.29297 7.80859 4.67188 7.04688 4.67188C6.28516 4.67188 5.66406 5.29297 5.66406 6.05469C5.66406 6.34375 5.75391 6.61328 5.90625 6.83203C5.52344 7 5.18359 7.24609 4.91016 7.55859V4.0625C4.91016 3.84375 5.08594 3.66797 5.30078 3.66797ZM6.25 6.05859C6.25 5.61719 6.60938 5.26172 7.04688 5.26172C7.48438 5.26172 7.84375 5.62109 7.84375 6.05859C7.84375 6.5 7.48438 6.85547 7.04688 6.85547C6.60938 6.85547 6.25 6.49609 6.25 6.05859ZM4.95703 8.58203C5.21875 7.94922 5.74609 7.47266 6.39844 7.28125C6.59375 7.38281 6.8125 7.44141 7.04688 7.44141C7.28125 7.44141 7.5 7.38281 7.69531 7.28125C8.34766 7.47656 8.875 7.95313 9.13672 8.58203C9.07031 8.70313 8.94141 8.78516 8.79297 8.78516H5.30078C5.15234 8.78516 5.02344 8.70313 4.95703 8.58203Z" fill="white" stroke="white" stroke-width="0.21" stroke-miterlimit="10"/>
<path d="M20.707 16.1289C20.8672 16.1289 21 15.9961 21 15.8359V12.832C21 12.1875 20.4883 11.6602 19.8477 11.6406V5.97265C19.8477 5.54687 19.6836 5.14844 19.3828 4.84765L16 1.46484C15.6992 1.16406 15.3008 1 14.875 1H3.74219C2.86719 1 2.15234 1.71094 2.15234 2.58984V9.1914C2.15234 9.35156 2.28516 9.48437 2.44531 9.48437C2.60547 9.48437 2.73828 9.35156 2.73828 9.1914V2.58984C2.73828 2.03516 3.1875 1.58594 3.74219 1.58594H14.875C14.957 1.58594 15.0391 1.59766 15.1172 1.61719V4.63672C15.1172 5.24219 15.6094 5.73437 16.2148 5.73437H19.2305C19.25 5.8125 19.2617 5.89453 19.2617 5.97656V11.6445H8.12109C7.85156 11.6445 7.59766 11.5273 7.41797 11.3281L6.94141 10.7891C6.65234 10.4609 6.23828 10.2734 5.80078 10.2734H2.19531C1.53516 10.2695 1 10.8047 1 11.4609V19.7656C1 20.4414 1.55078 20.9922 2.22656 20.9922H19.7734C20.4492 20.9922 21 20.4414 21 19.7656V17.207C21 17.0469 20.8672 16.9141 20.707 16.9141C20.5469 16.9141 20.4141 17.0469 20.4141 17.207V19.7656C20.4141 20.1211 20.125 20.4062 19.7734 20.4062H2.22656C1.87109 20.4062 1.58594 20.1172 1.58594 19.7656V11.4609C1.58594 11.125 1.85938 10.8516 2.19531 10.8516H5.80078C6.07031 10.8516 6.32422 10.9687 6.50391 11.168L6.98047 11.707C7.26953 12.0352 7.68359 12.2227 8.12109 12.2227H19.8047C20.1406 12.2227 20.4141 12.4961 20.4141 12.832V15.8359C20.4141 16 20.5469 16.1289 20.707 16.1289ZM15.7031 4.63281V2L18.8438 5.14453H16.2109C15.9336 5.14453 15.7031 4.91406 15.7031 4.63281Z" fill="white" stroke="white" stroke-width="0.21" stroke-miterlimit="10"/>
</svg>
