<svg width="13" height="13" viewBox="0 0 13 13" fill="none" xmlns="http://www.w3.org/2000/svg">
<path d="M0.875 9.91207V11.8121C0.875 11.9871 1.0125 12.1246 1.1875 12.1246H3.0875C3.16875 12.1246 3.25 12.0933 3.30625 12.0308L10.1312 5.21207L7.7875 2.86832L0.96875 9.68707C0.90625 9.74957 0.875 9.82457 0.875 9.91207ZM11.9437 3.39957C12.0017 3.34175 12.0477 3.27307 12.079 3.19746C12.1104 3.12186 12.1265 3.0408 12.1265 2.95895C12.1265 2.87709 12.1104 2.79604 12.079 2.72043C12.0477 2.64483 12.0017 2.57615 11.9437 2.51832L10.4813 1.05582C10.4234 0.997885 10.3547 0.951917 10.2791 0.920554C10.2035 0.889191 10.1225 0.873047 10.0406 0.873047C9.95877 0.873047 9.87772 0.889191 9.80211 0.920554C9.7265 0.951917 9.65782 0.997885 9.6 1.05582L8.45625 2.19957L10.8 4.54332L11.9437 3.39957Z" fill="#292E50"/>
</svg>
