<svg width="410" height="166" viewBox="0 0 410 166" fill="none" xmlns="http://www.w3.org/2000/svg">
<path d="M410 165.478C410 165.736 318.211 165.947 205.01 165.947C91.7693 165.947 0 165.736 0 165.478C0 165.219 91.7693 165.009 205.01 165.009C318.211 165.009 410 165.219 410 165.478Z" fill="#17282F"/>
<path d="M22.4289 120.913C24.9225 120.999 27.2628 122.332 28.9078 124.18C30.5524 126.027 31.5607 128.351 32.2054 130.724C33.4534 135.317 32.6865 140.737 31.3564 145.307C26.3079 143.53 23.1943 138.227 21.7868 135.44C19.5617 131.034 18.257 121.741 22.4289 120.913Z" fill="#27AE60"/>
<path d="M38.6834 149.998C37.2244 147.912 37.1902 145.011 38.3436 142.743C39.4968 140.475 41.7123 138.84 44.1525 138.093C45.2807 137.749 46.5901 137.604 47.5715 138.256C48.4889 138.867 48.8854 140.064 48.767 141.157C48.649 142.25 48.0926 143.249 47.4373 144.133C45.1891 147.164 42.4547 149.687 38.6834 149.998Z" fill="#27AE60"/>
<path d="M38.8569 165.009C38.8348 165.013 38.7658 164.679 38.6528 164.074C38.5309 163.406 38.3727 162.543 38.1834 161.507C37.8232 159.35 37.2515 156.281 37.6838 152.889C38.0993 149.513 39.3583 146.625 40.6778 144.901C41.3276 144.029 41.949 143.412 42.4093 143.032C42.6319 142.833 42.8283 142.71 42.9525 142.616C43.0802 142.526 43.1502 142.484 43.1565 142.493C43.2062 142.553 42.0894 143.288 40.8554 145.047C39.6052 146.776 38.4066 149.614 37.9975 152.934C37.5719 156.257 38.0988 159.298 38.4035 161.467C38.5668 162.556 38.6986 163.439 38.7744 164.053C38.8502 164.665 38.8778 165.006 38.8569 165.009Z" fill="#17282F"/>
<path d="M24.395 127.481C24.4059 127.476 24.4738 127.603 24.5937 127.852C24.7252 128.134 24.8937 128.495 25.1018 128.943C25.5378 129.894 26.151 131.277 26.8935 132.992C28.3798 136.423 30.3667 141.19 32.4404 146.504C34.5134 151.82 36.2806 156.673 37.5097 160.202C38.1247 161.967 38.6103 163.399 38.9329 164.393C39.0827 164.863 39.2037 165.243 39.2977 165.54C39.3777 165.803 39.4143 165.944 39.403 165.947C39.3923 165.951 39.3337 165.818 39.2327 165.563C39.1229 165.271 38.9819 164.898 38.8074 164.436C38.4327 163.415 37.915 162.007 37.2819 160.283C35.9952 156.775 34.1933 151.939 32.1218 146.627C30.0494 141.317 28.0995 136.538 26.6709 133.086C25.9688 131.388 25.3954 130.001 24.9799 128.996C24.7955 128.537 24.6466 128.167 24.5303 127.879C24.4312 127.623 24.3845 127.484 24.395 127.481Z" fill="#17282F"/>
<path d="M32.7844 155.239C29.9362 150.688 24.619 147.585 19.0131 147.203C17.5854 147.105 15.8685 147.331 15.2319 148.536C14.594 149.741 15.4468 151.168 16.4195 152.158C20.4661 156.274 27.311 157.709 32.8373 155.6" fill="#27AE60"/>
<path d="M21.5791 150.947C21.5808 150.924 21.8994 150.937 22.4764 150.98C22.7648 151 23.1185 151.025 23.5232 151.101C23.9264 151.176 24.3963 151.22 24.8961 151.358C25.3992 151.482 25.9548 151.604 26.5296 151.81C27.1156 151.983 27.7174 152.232 28.3497 152.499C29.5987 153.063 30.9241 153.803 32.1855 154.763C33.4378 155.736 34.496 156.822 35.3559 157.887C35.7699 158.434 36.1646 158.95 36.4727 159.477C36.8131 159.983 37.066 160.491 37.3035 160.949C37.558 161.4 37.7079 161.846 37.8738 162.22C38.042 162.594 38.1462 162.932 38.2301 163.208C38.4018 163.758 38.4856 164.064 38.4635 164.071C38.3918 164.095 38.0475 162.863 37.0925 161.058C36.8444 160.612 36.5836 160.118 36.2382 159.626C35.9251 159.115 35.5274 158.612 35.1144 158.08C34.2551 157.043 33.2105 155.983 31.9803 155.028C30.7412 154.085 29.4447 153.351 28.2225 152.78C27.6035 152.51 27.0147 152.253 26.4405 152.073C25.8782 151.858 25.3334 151.724 24.84 151.588C22.8527 151.087 21.5717 151.02 21.5791 150.947Z" fill="#17282F"/>
<path d="M292.723 165.009C293.816 164.722 294.746 164.403 295.538 164.071C294.629 164.508 293.687 164.825 292.723 165.009Z" fill="#7E1C2C"/>
<path d="M170.441 30.6152L147.28 150.04L144.248 165.673L298.864 164.909C305.803 164.874 311.952 158.695 314.184 149.514L341.601 36.7652C343.296 29.7961 339.577 22.5471 334.31 22.5524L177.821 22.7173C174.366 22.7212 171.344 25.9545 170.441 30.6152Z" fill="#FF9C08"/>
<path d="M302.36 161.336C285.563 161.336 283.944 142.068 283.942 142.054L269.154 22.6207L334.299 22.5524C334.301 22.5524 334.302 22.5524 334.305 22.5524C338.701 22.5524 342.019 27.5973 342.016 33.3161C342.015 34.4548 341.883 35.6199 341.601 36.7777L329.78 85.3581L325.071 104.711L314.141 149.627C312.989 154.364 310.793 158.303 307.983 161.013C308.125 160.788 308.168 160.655 308.168 160.655C306.055 161.124 304.123 161.336 302.36 161.336Z" fill="#DA900B" fill-opacity="0.79"/>
<path d="M283.93 141.458L267.513 9.42857C266.84 4.01912 262.522 -0.0163422 257.424 4.57764e-05L221.425 0.117386C218.76 0.126572 216.205 1.2567 214.313 3.2646L197.219 21.3992L97.0988 21.921C90.9809 21.9525 86.2804 27.7304 87.0912 34.2221L102.334 156.251C103.008 161.653 107.319 165.683 112.41 165.673L286.897 165.329C306.331 165.731 308.187 160.003 308.187 160.003C285.915 164.929 283.932 141.473 283.93 141.458Z" fill="#0261A2"/>
</svg>
