<svg width="15" height="15" viewBox="0 0 15 15" fill="none" xmlns="http://www.w3.org/2000/svg">
<path d="M1.875 10.9121V12.8121C1.875 12.9871 2.0125 13.1246 2.1875 13.1246H4.0875C4.16875 13.1246 4.25 13.0933 4.30625 13.0308L11.1312 6.21207L8.7875 3.86832L1.96875 10.6871C1.90625 10.7496 1.875 10.8246 1.875 10.9121ZM12.9437 4.39957C13.0017 4.34175 13.0477 4.27307 13.079 4.19746C13.1104 4.12186 13.1265 4.0408 13.1265 3.95895C13.1265 3.87709 13.1104 3.79604 13.079 3.72043C13.0477 3.64483 13.0017 3.57615 12.9437 3.51832L11.4813 2.05582C11.4234 1.99788 11.3547 1.95192 11.2791 1.92055C11.2035 1.88919 11.1225 1.87305 11.0406 1.87305C10.9588 1.87305 10.8777 1.88919 10.8021 1.92055C10.7265 1.95192 10.6578 1.99788 10.6 2.05582L9.45625 3.19957L11.8 5.54332L12.9437 4.39957Z" fill="white"/>
</svg>
