<svg width="58" height="55" viewBox="0 0 58 55" fill="none" xmlns="http://www.w3.org/2000/svg">
<g filter="url(#filter0_d)">
<path d="M43.4121 33.7969C41.7792 32.5809 39.3919 32.4387 37.1357 34.6836C35.5195 36.2936 34.2463 36.2938 32.6299 34.6836C30.3032 32.3656 27.7907 32.2731 25.3681 34.6836C23.7518 36.2937 22.4797 36.2938 20.8633 34.6836C18.6248 32.4563 16.2313 32.5723 14.5869 33.7969C9.24832 23.1337 17.027 10.4736 29 10.4736C40.9723 10.4736 48.7528 23.1342 43.4121 33.7969Z" fill="#FFE661"/>
<path d="M29 1.68457C28.191 1.68457 27.5352 2.34043 27.5352 3.14941V6.0791C27.5352 6.88809 28.191 7.54395 29 7.54395C29.809 7.54395 30.4648 6.88809 30.4648 6.0791V3.14941C30.4648 2.34043 29.809 1.68457 29 1.68457Z" fill="#FFE661"/>
<path d="M18.5496 5.55704C18.1452 4.85645 17.2493 4.61632 16.5487 5.02091C15.8481 5.4254 15.608 6.3213 16.0125 7.02188L17.4774 9.55909C17.8839 10.2632 18.7811 10.4979 19.4784 10.0952C20.1789 9.69073 20.419 8.79483 20.0145 8.09425L18.5496 5.55704Z" fill="#FFE661"/>
<path d="M11.9722 15.0644L9.43502 13.5996C8.73433 13.1949 7.83843 13.4351 7.43404 14.1357C7.02955 14.8363 7.26959 15.7322 7.97017 16.1367L10.5074 17.6015C11.2048 18.0044 12.1022 17.769 12.5084 17.0654C12.9128 16.3648 12.6728 15.4689 11.9722 15.0644Z" fill="#FFE661"/>
<path d="M8.49219 25.1221H5.5625C4.75352 25.1221 4.09766 25.7779 4.09766 26.5869C4.09766 27.3959 4.75352 28.0518 5.5625 28.0518H8.49219C9.30117 28.0518 9.95703 27.3959 9.95703 26.5869C9.95703 25.7779 9.30117 25.1221 8.49219 25.1221Z" fill="#FFE661"/>
<path d="M52.4375 25.1221H49.5078C48.6988 25.1221 48.043 25.7779 48.043 26.5869C48.043 27.3959 48.6988 28.0518 49.5078 28.0518H52.4375C53.2465 28.0518 53.9023 27.3959 53.9023 26.5869C53.9023 25.7779 53.2465 25.1221 52.4375 25.1221Z" fill="#FFE661"/>
<path d="M50.5661 14.1358C50.1616 13.4352 49.2658 13.1951 48.5651 13.5996L46.0279 15.0645C45.3273 15.469 45.0873 16.3649 45.4918 17.0655C45.8983 17.7696 46.7955 18.0042 47.4928 17.6016L50.03 16.1368C50.7307 15.7323 50.9707 14.8364 50.5661 14.1358Z" fill="#FFE661"/>
<path d="M41.4511 5.02092C40.7504 4.61623 39.8545 4.85647 39.4501 5.55705L37.9853 8.09426C37.5808 8.79484 37.8209 9.69074 38.5214 10.0952C39.2189 10.4981 40.1163 10.2627 40.5224 9.5591L41.9872 7.02189C42.3917 6.32131 42.1517 5.42541 41.4511 5.02092Z" fill="#FFE661"/>
<path d="M39.1876 32.4479C38.705 32.4481 38.2235 32.4956 37.7501 32.5896C37.204 29.9096 34.8052 27.8907 31.9274 27.8907C31.0711 27.8911 30.2249 28.0755 29.4461 28.4315C28.8742 26.9284 27.8578 25.6352 26.5324 24.7244C25.2069 23.8136 23.6353 23.3283 22.0271 23.3334C17.6529 23.3334 14.1072 26.8311 14.1072 31.1459C14.109 32.0375 14.266 32.922 14.5711 33.7598C11.0171 33.8631 8.16663 36.7302 8.16663 40.2604C8.16663 43.856 11.1217 46.7709 14.7668 46.7709H39.1876C43.1974 46.7709 46.4479 43.5646 46.4479 39.6095C46.4479 35.6543 43.1974 32.4479 39.1876 32.4479Z" fill="#00AAE8"/>
</g>
<defs>
<filter id="filter0_d" x="0" y="0" width="58" height="58" filterUnits="userSpaceOnUse" color-interpolation-filters="sRGB">
<feFlood flood-opacity="0" result="BackgroundImageFix"/>
<feColorMatrix in="SourceAlpha" type="matrix" values="0 0 0 0 0 0 0 0 0 0 0 0 0 0 0 0 0 0 127 0" result="hardAlpha"/>
<feOffset dy="4"/>
<feGaussianBlur stdDeviation="2"/>
<feColorMatrix type="matrix" values="0 0 0 0 0.12549 0 0 0 0 0.0941176 0 0 0 0 0.0941176 0 0 0 0.25 0"/>
<feBlend mode="normal" in2="BackgroundImageFix" result="effect1_dropShadow"/>
<feBlend mode="normal" in="SourceGraphic" in2="effect1_dropShadow" result="shape"/>
</filter>
</defs>
</svg>
