<svg width="18" height="21" viewBox="0 0 18 21" fill="none" xmlns="http://www.w3.org/2000/svg">
<path d="M3.80952 10.1905H11.4286V12.0953H3.80952V10.1905ZM5.71429 17.8095H1.90476V2.57145H8.57143V7.33335H13.3333V10.2857L15.2381 8.38097V6.38097L9.52381 0.666687H1.90476C1.39959 0.666687 0.915104 0.867367 0.557892 1.22458C0.20068 1.58179 0 2.06627 0 2.57145V17.8095C0 18.3147 0.20068 18.7992 0.557892 19.1564C0.915104 19.5136 1.39959 19.7143 1.90476 19.7143H5.71429V17.8095ZM3.80952 15.9048H7.71429L8.57143 15.0476V14H3.80952V15.9048ZM15.4286 11.1429C15.5238 11.1429 15.7143 11.2381 15.8095 11.3334L17.0476 12.5714C17.2381 12.7619 17.2381 13.1429 17.0476 13.3334L16.0952 14.2857L14.0952 12.2857L15.0476 11.3334C15.1429 11.2381 15.2381 11.1429 15.4286 11.1429ZM15.4286 14.8572L9.61905 20.6667H7.61905V18.6667L13.4286 12.8572L15.4286 14.8572Z" fill="white"/>
</svg>
