<svg width="30" height="24" viewBox="0 0 30 31" fill="none" xmlns="http://www.w3.org/2000/svg">
<g clip-path="url(#clip0)">
<path fill-rule="evenodd" clip-rule="evenodd" d="M30 15.7019C30 19.6554 28.4196 23.447 25.6066 26.2426C22.7936 29.0382 18.9782 30.6087 15 30.6087C11.0218 30.6087 7.20644 29.0382 4.3934 26.2426C1.58035 23.447 0 19.6554 0 15.7019C0 11.7483 1.58035 7.95673 4.3934 5.16115C7.20644 2.36558 11.0218 0.795044 15 0.795044C18.9782 0.795044 22.7936 2.36558 25.6066 5.16115C28.4196 7.95673 30 11.7483 30 15.7019ZM15 7.31678C15 7.06969 14.9012 6.83271 14.7254 6.65799C14.5496 6.48326 14.3111 6.38511 14.0625 6.38511C13.8139 6.38511 13.5754 6.48326 13.3996 6.65799C13.2238 6.83271 13.125 7.06969 13.125 7.31678V17.5652C13.1251 17.7295 13.1688 17.8907 13.2518 18.0328C13.3347 18.1748 13.454 18.2925 13.5975 18.3739L20.16 22.1006C20.3754 22.2163 20.6277 22.2437 20.8631 22.1769C21.0985 22.1101 21.2983 21.9545 21.4197 21.7432C21.5412 21.532 21.5747 21.282 21.5131 21.0465C21.4514 20.8111 21.2996 20.6089 21.09 20.4832L15 17.0249V7.31678Z" fill="#CEE4F2"/>
</g>
<defs>
<clipPath id="clip0">
<rect width="30" height="29.8137" fill="white" transform="translate(0 0.795044)"/>
</clipPath>
</defs>
</svg>
