<svg width="24" height="24" viewBox="0 0 24 24" fill="none" xmlns="http://www.w3.org/2000/svg">
<path d="M12 15C7.98857 15 0 17.0057 0 21V24H24V21C24 17.0057 16.0114 15 12 15ZM4.01143 20.5714C5.45143 19.5771 8.93143 18.4286 12 18.4286C15.0686 18.4286 18.5486 19.5771 19.9886 20.5714H4.01143ZM12 12C15.3086 12 18 9.30857 18 6C18 2.69143 15.3086 0 12 0C8.69143 0 6 2.69143 6 6C6 9.30857 8.69143 12 12 12ZM12 3.42857C13.4229 3.42857 14.5714 4.57714 14.5714 6C14.5714 7.42286 13.4229 8.57143 12 8.57143C10.5771 8.57143 9.42857 7.42286 9.42857 6C9.42857 4.57714 10.5771 3.42857 12 3.42857Z" fill="#F7CFD5"/>
</svg>
