<svg width="20" height="18" viewBox="0 0 20 18" fill="none" xmlns="http://www.w3.org/2000/svg">
<path d="M12.8125 13.7266H9.6875C9.36391 13.7266 9.10156 13.9889 9.10156 14.3125C9.10156 14.6361 9.36391 14.8984 9.6875 14.8984H12.8125C13.1361 14.8984 13.3984 14.6361 13.3984 14.3125C13.3984 13.9889 13.1361 13.7266 12.8125 13.7266Z" fill="white"/>
<path d="M9.6875 12.3984H11.875C12.1986 12.3984 12.4609 12.1361 12.4609 11.8125C12.4609 11.4889 12.1986 11.2266 11.875 11.2266H9.6875C9.36391 11.2266 9.10156 11.4889 9.10156 11.8125C9.10156 12.1361 9.36391 12.3984 9.6875 12.3984Z" fill="white"/>
<path d="M20 5.25C20 2.68684 17.9147 0.601562 15.3516 0.601562C13.3218 0.601562 11.592 1.90937 10.9598 3.72656H1.75781C0.788555 3.72656 0 4.51512 0 5.48438V15.6406C0 16.6099 0.788555 17.3984 1.75781 17.3984H16.3281C17.2974 17.3984 18.0859 16.6099 18.0859 15.6406V9.00668C19.2452 8.16055 20 6.79187 20 5.25ZM15.3516 1.77344C17.2686 1.77344 18.8281 3.33301 18.8281 5.25C18.8281 7.16699 17.2686 8.72656 15.3516 8.72656C13.4346 8.72656 11.875 7.16699 11.875 5.25C11.875 3.33301 13.4346 1.77344 15.3516 1.77344ZM16.9141 15.6406C16.9141 15.9637 16.6512 16.2266 16.3281 16.2266H1.75781C1.43473 16.2266 1.17188 15.9637 1.17188 15.6406V5.48438C1.17188 5.16129 1.43473 4.89844 1.75781 4.89844H10.7164C10.7077 5.01453 10.7031 5.13176 10.7031 5.25C10.7031 7.81316 12.7884 9.89844 15.3516 9.89844C15.8995 9.89844 16.4255 9.80285 16.9141 9.62797V15.6406Z" fill="white"/>
<path d="M14.2026 6.44952C14.2911 6.62639 14.4627 6.7467 14.6591 6.76952C14.6818 6.77209 14.7043 6.77342 14.7268 6.77342C14.8994 6.77342 15.0648 6.69702 15.1768 6.5626L16.7393 4.6876C16.9465 4.43901 16.9129 4.06956 16.6643 3.86237C16.4157 3.65522 16.0462 3.68881 15.8391 3.93741L14.8501 5.12417L14.6258 4.67549C14.4811 4.38604 14.1291 4.26866 13.8396 4.41346C13.5502 4.55815 13.4329 4.91014 13.5776 5.19956L14.2026 6.44952Z" fill="white"/>
<path d="M6.52688 10.8221C6.91086 10.4338 7.14844 9.90047 7.14844 9.3125C7.14844 8.12785 6.18465 7.16406 5 7.16406C3.81535 7.16406 2.85156 8.12785 2.85156 9.3125C2.85156 9.90047 3.08914 10.4338 3.47313 10.8221C2.90469 11.2733 2.53906 11.9696 2.53906 12.75V14.3125C2.53906 14.6361 2.80141 14.8984 3.125 14.8984H6.875C7.19859 14.8984 7.46094 14.6361 7.46094 14.3125V12.75C7.46094 11.9696 7.09531 11.2733 6.52688 10.8221ZM4.02344 9.3125C4.02344 8.77402 4.46152 8.33594 5 8.33594C5.53848 8.33594 5.97656 8.77402 5.97656 9.3125C5.97656 9.85098 5.53848 10.2891 5 10.2891C4.46152 10.2891 4.02344 9.85098 4.02344 9.3125ZM6.28906 13.7266H3.71094V12.75C3.71094 12.0392 4.28922 11.4609 5 11.4609C5.71078 11.4609 6.28906 12.0392 6.28906 12.75V13.7266Z" fill="white"/>
</svg>
