<svg width="17" height="16" viewBox="0 0 17 16" fill="none" xmlns="http://www.w3.org/2000/svg">
<path d="M8.00596 0C3.5916 0 0 3.58892 0 8C0 12.4111 3.5916 16 8.00596 16C12.4203 16 16.0119 12.4111 16.0119 8C16.0119 3.58892 12.4203 0 8.00596 0ZM11.3931 8.92308H8.00596C7.49604 8.92308 7.0822 8.50954 7.0822 8V4.61538C7.0822 4.10585 7.49604 3.69231 8.00596 3.69231C8.51588 3.69231 8.92973 4.10585 8.92973 4.61538V7.07692H11.3931C11.903 7.07692 12.3169 7.49046 12.3169 8C12.3169 8.50954 11.903 8.92308 11.3931 8.92308Z" fill="#FFA800"/>
</svg>
