<svg width="16" height="16" viewBox="0 0 16 16" fill="none" xmlns="http://www.w3.org/2000/svg">
<g clip-path="url(#clip0)">
<path d="M14.2531 3.07812C14.075 2.82497 13.8594 2.59059 13.6344 2.36562C13.4094 2.14066 13.175 1.92497 12.9219 1.74684C11.525 0.63125 9.80937 0 8 0C5.87184 0 3.87497 0.85625 2.36562 2.36562C0.856281 3.875 0 5.87184 0 8C0 9.81875 0.63125 11.5343 1.74691 12.9312C1.93441 13.1749 2.14062 13.4093 2.36562 13.6344C2.59062 13.8594 2.825 14.0656 3.06875 14.2531C4.46559 15.3687 6.18125 16 8 16C10.1282 16 12.125 15.1437 13.6344 13.6344C15.1437 12.125 16 10.1281 16 8C16 6.19063 15.3687 4.475 14.2531 3.07812ZM1.90625 8C1.90625 6.36875 2.54375 4.84062 3.68753 3.68747C4.84062 2.54375 6.36875 1.90625 8 1.90625C9.31253 1.90625 10.5593 2.31875 11.5907 3.07812L3.0875 11.5906C2.31875 10.5593 1.90625 9.31247 1.90625 8ZM12.3125 12.3125C11.1594 13.4563 9.63125 14.0938 8 14.0938C6.68747 14.0938 5.44066 13.6813 4.40934 12.9125L12.9219 4.40938C13.6812 5.44059 14.0938 6.68747 14.0938 8C14.0938 9.63125 13.4563 11.1594 12.3125 12.3125Z" fill="#E2574C"/>
<path d="M3.06885 14.2531C4.46569 15.3688 6.18135 16 8.0001 16C10.1283 16 12.1251 15.1438 13.6345 13.6344C15.1438 12.125 16.0001 10.1281 16.0001 8.00004C16.0001 6.19066 15.3688 4.47504 14.2532 3.07816C14.0751 2.82501 13.8595 2.59063 13.6345 2.36566L2.36572 13.6344C2.59069 13.8594 2.82507 14.0656 3.06885 14.2531ZM12.922 4.40938C13.6813 5.44063 14.0938 6.68751 14.0938 8.00004C14.0938 9.63129 13.4563 11.1594 12.3126 12.3125C11.1595 13.4563 9.63135 14.0938 8.0001 14.0938C6.68757 14.0938 5.44075 13.6813 4.40944 12.9125L12.922 4.40938Z" fill="#EE5D4F"/>
</g>
<defs>
<clipPath id="clip0">
<rect width="16" height="16" fill="white"/>
</clipPath>
</defs>
</svg>
