<svg width="32" height="24" viewBox="0 0 32 24" fill="none" xmlns="http://www.w3.org/2000/svg">
<path d="M9.33333 3.99998H30.6667C31.0203 3.99998 31.3594 3.8595 31.6095 3.60945C31.8595 3.35941 32 3.02027 32 2.66665C32 2.31302 31.8595 1.97389 31.6095 1.72384C31.3594 1.47379 31.0203 1.33331 30.6667 1.33331H9.33333C8.97971 1.33331 8.64057 1.47379 8.39052 1.72384C8.14048 1.97389 8 2.31302 8 2.66665C8 3.02027 8.14048 3.35941 8.39052 3.60945C8.64057 3.8595 8.97971 3.99998 9.33333 3.99998Z" fill="#FFEED2"/>
<path d="M30.6667 10.6667H9.33333C8.97971 10.6667 8.64057 10.8072 8.39052 11.0572C8.14048 11.3073 8 11.6464 8 12C8 12.3536 8.14048 12.6928 8.39052 12.9428C8.64057 13.1929 8.97971 13.3334 9.33333 13.3334H30.6667C31.0203 13.3334 31.3594 13.1929 31.6095 12.9428C31.8595 12.6928 32 12.3536 32 12C32 11.6464 31.8595 11.3073 31.6095 11.0572C31.3594 10.8072 31.0203 10.6667 30.6667 10.6667Z" fill="#FFEED2"/>
<path d="M30.6667 20H9.33333C8.97971 20 8.64057 20.1405 8.39052 20.3906C8.14048 20.6406 8 20.9797 8 21.3334C8 21.687 8.14048 22.0261 8.39052 22.2762C8.64057 22.5262 8.97971 22.6667 9.33333 22.6667H30.6667C31.0203 22.6667 31.3594 22.5262 31.6095 22.2762C31.8595 22.0261 32 21.687 32 21.3334C32 20.9797 31.8595 20.6406 31.6095 20.3906C31.3594 20.1405 31.0203 20 30.6667 20Z" fill="#FFEED2"/>
<path d="M2.66667 5.33333C4.13943 5.33333 5.33333 4.13943 5.33333 2.66667C5.33333 1.19391 4.13943 0 2.66667 0C1.19391 0 0 1.19391 0 2.66667C0 4.13943 1.19391 5.33333 2.66667 5.33333Z" fill="#FFEED2"/>
<path d="M2.66667 14.6666C4.13943 14.6666 5.33333 13.4727 5.33333 11.9999C5.33333 10.5272 4.13943 9.33325 2.66667 9.33325C1.19391 9.33325 0 10.5272 0 11.9999C0 13.4727 1.19391 14.6666 2.66667 14.6666Z" fill="#FFEED2"/>
<path d="M2.66667 24.0001C4.13943 24.0001 5.33333 22.8061 5.33333 21.3334C5.33333 19.8606 4.13943 18.6667 2.66667 18.6667C1.19391 18.6667 0 19.8606 0 21.3334C0 22.8061 1.19391 24.0001 2.66667 24.0001Z" fill="#FFEED2"/>
</svg>
