<svg width="24" height="24" viewBox="0 0 24 24" fill="none" xmlns="http://www.w3.org/2000/svg">
<circle cx="12" cy="12" r="12" fill="#292E50"/>
<path d="M16.9999 11.4998H8.20689L10.8534 8.8533C10.9011 8.80717 10.9392 8.752 10.9654 8.691C10.9916 8.63 11.0054 8.56439 11.006 8.498C11.0066 8.43161 10.9939 8.36577 10.9688 8.30432C10.9437 8.24287 10.9065 8.18705 10.8596 8.1401C10.8126 8.09315 10.7568 8.05603 10.6954 8.03089C10.6339 8.00575 10.5681 7.99309 10.5017 7.99367C10.4353 7.99425 10.3697 8.00804 10.3087 8.03425C10.2477 8.06045 10.1925 8.09854 10.1464 8.1463L6.64639 11.6463C6.55266 11.7401 6.5 11.8672 6.5 11.9998C6.5 12.1324 6.55266 12.2595 6.64639 12.3533L10.1464 15.8533C10.2407 15.9444 10.367 15.9948 10.4981 15.9936C10.6292 15.9925 10.7546 15.9399 10.8473 15.8472C10.94 15.7545 10.9926 15.6291 10.9937 15.498C10.9949 15.3669 10.9445 15.2406 10.8534 15.1463L8.20689 12.4998H16.9999C17.1325 12.4998 17.2597 12.4471 17.3534 12.3533C17.4472 12.2596 17.4999 12.1324 17.4999 11.9998C17.4999 11.8672 17.4472 11.74 17.3534 11.6462C17.2597 11.5525 17.1325 11.4998 16.9999 11.4998Z" fill="white"/>
</svg>
