<svg width="42" height="42" viewBox="0 0 42 42" fill="none" xmlns="http://www.w3.org/2000/svg">
<g clip-path="url(#clip0)">
<path d="M23.8948 31.1684H17.4367C16.3631 31.1684 15.4993 30.3046 15.4993 29.231V15.669H8.41968C6.98277 15.669 6.26431 13.9334 7.28145 12.9163L19.5598 0.629863C20.1653 0.0244207 21.1582 0.0244207 21.7636 0.629863L34.0501 12.9163C35.0672 13.9334 34.3488 15.669 32.9118 15.669H25.8322V29.231C25.8322 30.3046 24.9684 31.1684 23.8948 31.1684ZM41.3315 30.5226V39.5638C41.3315 40.6375 40.4678 41.5013 39.3941 41.5013H1.93742C0.863764 41.5013 0 40.6375 0 39.5638V30.5226C0 29.4489 0.863764 28.5851 1.93742 28.5851H12.9161V29.231C12.9161 31.7254 14.9423 33.7516 17.4367 33.7516H23.8948C26.3892 33.7516 28.4154 31.7254 28.4154 29.231V28.5851H39.3941C40.4678 28.5851 41.3315 29.4489 41.3315 30.5226ZM31.3215 37.6264C31.3215 36.7384 30.595 36.0119 29.707 36.0119C28.819 36.0119 28.0925 36.7384 28.0925 37.6264C28.0925 38.5144 28.819 39.2409 29.707 39.2409C30.595 39.2409 31.3215 38.5144 31.3215 37.6264ZM36.488 37.6264C36.488 36.7384 35.7615 36.0119 34.8735 36.0119C33.9855 36.0119 33.259 36.7384 33.259 37.6264C33.259 38.5144 33.9855 39.2409 34.8735 39.2409C35.7615 39.2409 36.488 38.5144 36.488 37.6264Z" fill="#9E9E9E"/>
</g>
<defs>
<clipPath id="clip0">
<rect width="41.3315" height="41.3315" fill="white" transform="translate(0 0.167969)"/>
</clipPath>
</defs>
</svg>
