<svg width="195" height="195" viewBox="0 0 195 195" fill="none" xmlns="http://www.w3.org/2000/svg">
<circle cx="97.5" cy="97.5" r="97.5" fill="#EEEEEE"/>
<circle cx="97.4998" cy="97.4998" r="86.4022" stroke="#303336" stroke-dasharray="13 13"/>
<path d="M53.5275 125.717C53.9575 125.717 54.3425 125.645 54.6825 125.5C55.0225 125.355 55.31 125.152 55.545 124.892C55.78 124.627 55.96 124.315 56.085 123.955C56.21 123.59 56.2725 123.187 56.2725 122.747V116.23H57.8625V122.747C57.8625 123.377 57.7625 123.96 57.5625 124.495C57.3625 125.03 57.075 125.492 56.7 125.882C56.325 126.272 55.87 126.577 55.335 126.797C54.8 127.018 54.1975 127.128 53.5275 127.128C52.8575 127.128 52.255 127.018 51.72 126.797C51.185 126.577 50.73 126.272 50.355 125.882C49.98 125.492 49.6925 125.03 49.4925 124.495C49.2925 123.96 49.1925 123.377 49.1925 122.747V116.23H50.79V122.74C50.79 123.18 50.85 123.582 50.97 123.947C51.095 124.312 51.275 124.627 51.51 124.892C51.745 125.152 52.0325 125.355 52.3725 125.5C52.7125 125.645 53.0975 125.717 53.5275 125.717ZM61.3152 125.125C61.5552 125.44 61.8127 125.66 62.0877 125.785C62.3677 125.91 62.6802 125.972 63.0252 125.972C63.6952 125.972 64.2127 125.732 64.5777 125.252C64.9477 124.767 65.1327 124.062 65.1327 123.137C65.1327 122.652 65.0902 122.24 65.0052 121.9C64.9252 121.555 64.8052 121.275 64.6452 121.06C64.4902 120.84 64.2977 120.68 64.0677 120.58C63.8377 120.475 63.5777 120.422 63.2877 120.422C62.8627 120.422 62.4927 120.517 62.1777 120.707C61.8677 120.897 61.5802 121.167 61.3152 121.517V125.125ZM61.2402 120.52C61.4002 120.33 61.5702 120.157 61.7502 120.002C61.9352 119.842 62.1327 119.707 62.3427 119.597C62.5527 119.482 62.7752 119.395 63.0102 119.335C63.2502 119.27 63.5052 119.237 63.7752 119.237C64.2102 119.237 64.6027 119.322 64.9527 119.492C65.3077 119.662 65.6102 119.912 65.8602 120.242C66.1102 120.572 66.3027 120.98 66.4377 121.465C66.5777 121.95 66.6477 122.507 66.6477 123.137C66.6477 123.702 66.5702 124.227 66.4152 124.712C66.2652 125.192 66.0477 125.61 65.7627 125.965C65.4827 126.32 65.1377 126.6 64.7277 126.805C64.3227 127.005 63.8652 127.105 63.3552 127.105C62.9002 127.105 62.5102 127.03 62.1852 126.88C61.8602 126.73 61.5702 126.52 61.3152 126.25V129.558H59.8527V119.38H60.7302C60.9352 119.38 61.0627 119.477 61.1127 119.672L61.2402 120.52ZM69.7902 115.93V127H68.3202V115.93H69.7902ZM75.1266 119.26C75.6866 119.26 76.1916 119.352 76.6416 119.537C77.0966 119.717 77.4816 119.98 77.7966 120.325C78.1166 120.665 78.3616 121.077 78.5316 121.562C78.7016 122.042 78.7866 122.582 78.7866 123.182C78.7866 123.782 78.7016 124.325 78.5316 124.81C78.3616 125.295 78.1166 125.707 77.7966 126.047C77.4816 126.387 77.0966 126.65 76.6416 126.835C76.1916 127.015 75.6866 127.105 75.1266 127.105C74.5616 127.105 74.0516 127.015 73.5966 126.835C73.1466 126.65 72.7616 126.387 72.4416 126.047C72.1216 125.707 71.8741 125.295 71.6991 124.81C71.5291 124.325 71.4441 123.782 71.4441 123.182C71.4441 122.582 71.5291 122.042 71.6991 121.562C71.8741 121.077 72.1216 120.665 72.4416 120.325C72.7616 119.98 73.1466 119.717 73.5966 119.537C74.0516 119.352 74.5616 119.26 75.1266 119.26ZM75.1266 125.965C75.8466 125.965 76.3841 125.722 76.7391 125.237C77.0941 124.752 77.2716 124.07 77.2716 123.19C77.2716 122.31 77.0941 121.627 76.7391 121.142C76.3841 120.652 75.8466 120.407 75.1266 120.407C74.3966 120.407 73.8516 120.652 73.4916 121.142C73.1366 121.627 72.9591 122.31 72.9591 123.19C72.9591 124.07 73.1366 124.752 73.4916 125.237C73.8516 125.722 74.3966 125.965 75.1266 125.965ZM84.5141 123.617C83.9191 123.637 83.4141 123.685 82.9991 123.76C82.5841 123.83 82.2466 123.925 81.9866 124.045C81.7266 124.165 81.5391 124.307 81.4241 124.472C81.3091 124.632 81.2516 124.812 81.2516 125.012C81.2516 125.202 81.2816 125.367 81.3416 125.507C81.4066 125.642 81.4916 125.755 81.5966 125.845C81.7066 125.93 81.8341 125.992 81.9791 126.032C82.1241 126.072 82.2816 126.092 82.4516 126.092C82.6766 126.092 82.8816 126.07 83.0666 126.025C83.2566 125.98 83.4341 125.917 83.5991 125.837C83.7641 125.752 83.9216 125.65 84.0716 125.53C84.2216 125.41 84.3691 125.272 84.5141 125.117V123.617ZM80.2241 120.445C80.6491 120.04 81.1091 119.737 81.6041 119.537C82.1041 119.337 82.6516 119.237 83.2466 119.237C83.6816 119.237 84.0666 119.31 84.4016 119.455C84.7366 119.595 85.0191 119.792 85.2491 120.047C85.4791 120.302 85.6516 120.607 85.7666 120.962C85.8866 121.317 85.9466 121.71 85.9466 122.14V127H85.2941C85.1491 127 85.0391 126.977 84.9641 126.932C84.8891 126.882 84.8291 126.792 84.7841 126.662L84.6266 125.995C84.4316 126.175 84.2391 126.335 84.0491 126.475C83.8591 126.61 83.6591 126.727 83.4491 126.827C83.2441 126.922 83.0241 126.995 82.7891 127.045C82.5541 127.095 82.2941 127.12 82.0091 127.12C81.7091 127.12 81.4266 127.08 81.1616 127C80.9016 126.915 80.6741 126.787 80.4791 126.617C80.2841 126.447 80.1291 126.235 80.0141 125.98C79.9041 125.725 79.8491 125.427 79.8491 125.087C79.8491 124.787 79.9291 124.5 80.0891 124.225C80.2541 123.945 80.5191 123.695 80.8841 123.475C81.2541 123.255 81.7341 123.075 82.3241 122.935C82.9191 122.795 83.6491 122.715 84.5141 122.695V122.14C84.5141 121.565 84.3916 121.135 84.1466 120.85C83.9016 120.565 83.5416 120.422 83.0666 120.422C82.7466 120.422 82.4766 120.462 82.2566 120.542C82.0416 120.622 81.8541 120.712 81.6941 120.812C81.5391 120.907 81.4016 120.995 81.2816 121.075C81.1666 121.155 81.0466 121.195 80.9216 121.195C80.8216 121.195 80.7341 121.167 80.6591 121.112C80.5891 121.057 80.5316 120.992 80.4866 120.917L80.2241 120.445ZM92.817 121.225C92.577 120.91 92.317 120.69 92.037 120.565C91.762 120.44 91.452 120.377 91.107 120.377C90.437 120.377 89.917 120.62 89.547 121.105C89.182 121.585 88.9995 122.287 88.9995 123.213C88.9995 123.697 89.0395 124.112 89.1195 124.457C89.2045 124.797 89.3245 125.077 89.4795 125.297C89.6395 125.512 89.8345 125.672 90.0645 125.777C90.2945 125.877 90.5545 125.927 90.8445 125.927C91.2695 125.927 91.637 125.832 91.947 125.642C92.257 125.452 92.547 125.185 92.817 124.84V121.225ZM94.287 115.93V127H93.402C93.197 127 93.0695 126.902 93.0195 126.707L92.892 125.83C92.567 126.215 92.197 126.525 91.782 126.76C91.372 126.99 90.897 127.105 90.357 127.105C89.922 127.105 89.527 127.02 89.172 126.85C88.822 126.68 88.522 126.432 88.272 126.107C88.022 125.777 87.8295 125.37 87.6945 124.885C87.5595 124.4 87.492 123.842 87.492 123.213C87.492 122.647 87.567 122.122 87.717 121.637C87.867 121.152 88.0845 120.732 88.3695 120.377C88.6545 120.022 88.9995 119.745 89.4045 119.545C89.8095 119.34 90.267 119.237 90.777 119.237C91.237 119.237 91.627 119.312 91.947 119.463C92.272 119.612 92.562 119.825 92.817 120.1V115.93H94.287ZM101.584 125.125C101.824 125.44 102.081 125.66 102.356 125.785C102.636 125.91 102.949 125.972 103.294 125.972C103.964 125.972 104.481 125.732 104.846 125.252C105.216 124.767 105.401 124.062 105.401 123.137C105.401 122.652 105.359 122.24 105.274 121.9C105.194 121.555 105.074 121.275 104.914 121.06C104.759 120.84 104.566 120.68 104.336 120.58C104.106 120.475 103.846 120.422 103.556 120.422C103.131 120.422 102.761 120.517 102.446 120.707C102.136 120.897 101.849 121.167 101.584 121.517V125.125ZM101.509 120.52C101.669 120.33 101.839 120.157 102.019 120.002C102.204 119.842 102.401 119.707 102.611 119.597C102.821 119.482 103.044 119.395 103.279 119.335C103.519 119.27 103.774 119.237 104.044 119.237C104.479 119.237 104.871 119.322 105.221 119.492C105.576 119.662 105.879 119.912 106.129 120.242C106.379 120.572 106.571 120.98 106.706 121.465C106.846 121.95 106.916 122.507 106.916 123.137C106.916 123.702 106.839 124.227 106.684 124.712C106.534 125.192 106.316 125.61 106.031 125.965C105.751 126.32 105.406 126.6 104.996 126.805C104.591 127.005 104.134 127.105 103.624 127.105C103.169 127.105 102.779 127.03 102.454 126.88C102.129 126.73 101.839 126.52 101.584 126.25V129.558H100.121V119.38H100.999C101.204 119.38 101.331 119.477 101.381 119.672L101.509 120.52ZM110.089 119.38V127H108.626V119.38H110.089ZM110.366 117.025C110.366 117.16 110.339 117.29 110.284 117.415C110.229 117.535 110.154 117.642 110.059 117.737C109.969 117.827 109.861 117.9 109.736 117.955C109.611 118.005 109.481 118.03 109.346 118.03C109.211 118.03 109.084 118.005 108.964 117.955C108.844 117.9 108.736 117.827 108.641 117.737C108.551 117.642 108.479 117.535 108.424 117.415C108.374 117.29 108.349 117.16 108.349 117.025C108.349 116.885 108.374 116.755 108.424 116.635C108.479 116.51 108.551 116.402 108.641 116.312C108.736 116.217 108.844 116.145 108.964 116.095C109.084 116.04 109.211 116.012 109.346 116.012C109.481 116.012 109.611 116.04 109.736 116.095C109.861 116.145 109.969 116.217 110.059 116.312C110.154 116.402 110.229 116.51 110.284 116.635C110.339 116.755 110.366 116.885 110.366 117.025ZM117.546 120.805C117.501 120.86 117.456 120.905 117.411 120.94C117.371 120.97 117.311 120.985 117.231 120.985C117.151 120.985 117.066 120.955 116.976 120.895C116.891 120.83 116.781 120.762 116.646 120.692C116.516 120.617 116.356 120.55 116.166 120.49C115.981 120.425 115.751 120.392 115.476 120.392C115.116 120.392 114.799 120.457 114.524 120.587C114.249 120.717 114.019 120.902 113.834 121.142C113.654 121.382 113.516 121.675 113.421 122.02C113.326 122.365 113.279 122.752 113.279 123.182C113.279 123.627 113.329 124.025 113.429 124.375C113.529 124.72 113.671 125.012 113.856 125.252C114.041 125.487 114.266 125.667 114.531 125.792C114.796 125.912 115.091 125.972 115.416 125.972C115.731 125.972 115.991 125.935 116.196 125.86C116.401 125.78 116.571 125.695 116.706 125.605C116.841 125.515 116.954 125.432 117.044 125.357C117.134 125.277 117.226 125.237 117.321 125.237C117.441 125.237 117.534 125.282 117.599 125.372L118.019 125.912C117.844 126.127 117.646 126.31 117.426 126.46C117.211 126.61 116.981 126.732 116.736 126.827C116.491 126.922 116.234 126.992 115.964 127.038C115.699 127.083 115.429 127.105 115.154 127.105C114.679 127.105 114.234 127.017 113.819 126.842C113.409 126.667 113.051 126.412 112.746 126.077C112.446 125.742 112.209 125.332 112.034 124.847C111.859 124.357 111.771 123.802 111.771 123.182C111.771 122.617 111.849 122.095 112.004 121.615C112.164 121.135 112.396 120.722 112.701 120.377C113.011 120.027 113.391 119.755 113.841 119.56C114.291 119.36 114.806 119.26 115.386 119.26C115.931 119.26 116.411 119.347 116.826 119.522C117.241 119.697 117.611 119.945 117.936 120.265L117.546 120.805ZM121.769 127.12C121.154 127.12 120.679 126.947 120.344 126.602C120.014 126.257 119.849 125.765 119.849 125.125V120.565H118.964C118.879 120.565 118.806 120.54 118.746 120.49C118.691 120.435 118.664 120.355 118.664 120.25V119.657L119.901 119.485L120.231 117.212C120.251 117.127 120.289 117.062 120.344 117.017C120.404 116.967 120.479 116.942 120.569 116.942H121.311V119.5H123.471V120.565H121.311V125.027C121.311 125.327 121.384 125.552 121.529 125.702C121.679 125.847 121.869 125.92 122.099 125.92C122.234 125.92 122.349 125.902 122.444 125.867C122.544 125.832 122.629 125.795 122.699 125.755C122.769 125.71 122.829 125.67 122.879 125.635C122.929 125.6 122.974 125.582 123.014 125.582C123.064 125.582 123.101 125.595 123.126 125.62C123.156 125.64 123.186 125.675 123.216 125.725L123.651 126.43C123.411 126.65 123.126 126.82 122.796 126.94C122.466 127.06 122.124 127.12 121.769 127.12ZM131.156 119.38V127H130.279C130.079 127 129.949 126.902 129.889 126.707L129.784 125.942C129.619 126.117 129.446 126.277 129.266 126.422C129.086 126.567 128.894 126.692 128.689 126.797C128.484 126.897 128.266 126.975 128.036 127.03C127.806 127.09 127.559 127.12 127.294 127.12C126.874 127.12 126.504 127.05 126.184 126.91C125.869 126.77 125.604 126.575 125.389 126.325C125.174 126.07 125.011 125.765 124.901 125.41C124.791 125.055 124.736 124.662 124.736 124.232V119.38H126.206V124.232C126.206 124.777 126.331 125.202 126.581 125.507C126.831 125.807 127.214 125.957 127.729 125.957C128.104 125.957 128.454 125.87 128.779 125.695C129.104 125.515 129.409 125.27 129.694 124.96V119.38H131.156ZM134.577 120.842C134.822 120.342 135.117 119.95 135.462 119.665C135.807 119.38 136.222 119.237 136.707 119.237C136.872 119.237 137.027 119.257 137.172 119.297C137.322 119.332 137.452 119.387 137.562 119.463L137.465 120.565C137.43 120.7 137.347 120.767 137.217 120.767C137.147 120.767 137.042 120.755 136.902 120.73C136.762 120.7 136.612 120.685 136.452 120.685C136.217 120.685 136.01 120.72 135.83 120.79C135.65 120.855 135.487 120.955 135.342 121.09C135.202 121.22 135.077 121.382 134.967 121.577C134.857 121.767 134.755 121.985 134.66 122.23V127H133.197V119.38H134.037C134.197 119.38 134.305 119.41 134.36 119.47C134.42 119.525 134.462 119.625 134.487 119.77L134.577 120.842ZM143.46 122.342C143.46 122.052 143.417 121.785 143.332 121.54C143.252 121.295 143.132 121.082 142.972 120.902C142.812 120.722 142.617 120.582 142.387 120.482C142.157 120.382 141.892 120.332 141.592 120.332C140.977 120.332 140.492 120.51 140.137 120.865C139.787 121.22 139.565 121.712 139.47 122.342H143.46ZM144.667 125.912C144.487 126.122 144.28 126.305 144.045 126.46C143.81 126.61 143.56 126.732 143.295 126.827C143.03 126.922 142.755 126.992 142.47 127.038C142.19 127.083 141.912 127.105 141.637 127.105C141.112 127.105 140.625 127.017 140.175 126.842C139.73 126.662 139.342 126.402 139.012 126.062C138.687 125.717 138.432 125.292 138.247 124.787C138.067 124.277 137.977 123.692 137.977 123.032C137.977 122.502 138.06 122.01 138.225 121.555C138.39 121.095 138.625 120.695 138.93 120.355C139.24 120.015 139.617 119.747 140.062 119.552C140.507 119.357 141.007 119.26 141.562 119.26C142.027 119.26 142.455 119.337 142.845 119.492C143.24 119.642 143.58 119.862 143.865 120.152C144.15 120.442 144.372 120.8 144.532 121.225C144.697 121.65 144.78 122.135 144.78 122.68C144.78 122.905 144.755 123.057 144.705 123.137C144.655 123.212 144.562 123.25 144.427 123.25H139.432C139.447 123.705 139.512 124.102 139.627 124.442C139.742 124.777 139.9 125.057 140.1 125.282C140.305 125.507 140.547 125.675 140.827 125.785C141.107 125.895 141.42 125.95 141.765 125.95C142.09 125.95 142.37 125.912 142.605 125.837C142.845 125.762 143.05 125.682 143.22 125.597C143.395 125.507 143.54 125.425 143.655 125.35C143.775 125.275 143.88 125.237 143.97 125.237C144.09 125.237 144.182 125.282 144.247 125.372L144.667 125.912ZM80.8416 138.347C81.1616 138.022 81.5141 137.76 81.8991 137.56C82.2891 137.36 82.7366 137.26 83.2416 137.26C83.6616 137.26 84.0291 137.33 84.3441 137.47C84.6641 137.61 84.9316 137.807 85.1466 138.062C85.3616 138.312 85.5241 138.615 85.6341 138.97C85.7441 139.325 85.7991 139.717 85.7991 140.147V145H84.3291V140.147C84.3291 139.602 84.2041 139.18 83.9541 138.88C83.7041 138.575 83.3216 138.422 82.8066 138.422C82.4316 138.422 82.0791 138.512 81.7491 138.692C81.4241 138.867 81.1216 139.107 80.8416 139.412V145H79.3791V133.93H80.8416V138.347ZM92.8201 140.342C92.8201 140.052 92.7776 139.785 92.6926 139.54C92.6126 139.295 92.4926 139.082 92.3326 138.902C92.1726 138.722 91.9776 138.582 91.7476 138.482C91.5176 138.382 91.2526 138.332 90.9526 138.332C90.3376 138.332 89.8526 138.51 89.4976 138.865C89.1476 139.22 88.9251 139.712 88.8301 140.342H92.8201ZM94.0276 143.912C93.8476 144.122 93.6401 144.305 93.4051 144.46C93.1701 144.61 92.9201 144.732 92.6551 144.827C92.3901 144.922 92.1151 144.992 91.8301 145.038C91.5501 145.083 91.2726 145.105 90.9976 145.105C90.4726 145.105 89.9851 145.017 89.5351 144.842C89.0901 144.662 88.7026 144.402 88.3726 144.062C88.0476 143.717 87.7926 143.292 87.6076 142.787C87.4276 142.277 87.3376 141.692 87.3376 141.032C87.3376 140.502 87.4201 140.01 87.5851 139.555C87.7501 139.095 87.9851 138.695 88.2901 138.355C88.6001 138.015 88.9776 137.747 89.4226 137.552C89.8676 137.357 90.3676 137.26 90.9226 137.26C91.3876 137.26 91.8151 137.337 92.2051 137.492C92.6001 137.642 92.9401 137.862 93.2251 138.152C93.5101 138.442 93.7326 138.8 93.8926 139.225C94.0576 139.65 94.1401 140.135 94.1401 140.68C94.1401 140.905 94.1151 141.057 94.0651 141.137C94.0151 141.212 93.9226 141.25 93.7876 141.25H88.7926C88.8076 141.705 88.8726 142.102 88.9876 142.442C89.1026 142.777 89.2601 143.057 89.4601 143.282C89.6651 143.507 89.9076 143.675 90.1876 143.785C90.4676 143.895 90.7801 143.95 91.1251 143.95C91.4501 143.95 91.7301 143.912 91.9651 143.837C92.2051 143.762 92.4101 143.682 92.5801 143.597C92.7551 143.507 92.9001 143.425 93.0151 143.35C93.1351 143.275 93.2401 143.237 93.3301 143.237C93.4501 143.237 93.5426 143.282 93.6076 143.372L94.0276 143.912ZM97.0921 138.842C97.3371 138.342 97.6321 137.95 97.9771 137.665C98.3221 137.38 98.7371 137.237 99.2221 137.237C99.3871 137.237 99.5421 137.257 99.6871 137.297C99.8371 137.332 99.9671 137.387 100.077 137.463L99.9796 138.565C99.9446 138.7 99.8621 138.767 99.7321 138.767C99.6621 138.767 99.5571 138.755 99.4171 138.73C99.2771 138.7 99.1271 138.685 98.9671 138.685C98.7321 138.685 98.5246 138.72 98.3446 138.79C98.1646 138.855 98.0021 138.955 97.8571 139.09C97.7171 139.22 97.5921 139.382 97.4821 139.577C97.3721 139.767 97.2696 139.985 97.1746 140.23V145H95.7121V137.38H96.5521C96.7121 137.38 96.8196 137.41 96.8746 137.47C96.9346 137.525 96.9771 137.625 97.0021 137.77L97.0921 138.842ZM105.974 140.342C105.974 140.052 105.932 139.785 105.847 139.54C105.767 139.295 105.647 139.082 105.487 138.902C105.327 138.722 105.132 138.582 104.902 138.482C104.672 138.382 104.407 138.332 104.107 138.332C103.492 138.332 103.007 138.51 102.652 138.865C102.302 139.22 102.079 139.712 101.984 140.342H105.974ZM107.182 143.912C107.002 144.122 106.794 144.305 106.559 144.46C106.324 144.61 106.074 144.732 105.809 144.827C105.544 144.922 105.269 144.992 104.984 145.038C104.704 145.083 104.427 145.105 104.152 145.105C103.627 145.105 103.139 145.017 102.689 144.842C102.244 144.662 101.857 144.402 101.527 144.062C101.202 143.717 100.947 143.292 100.762 142.787C100.582 142.277 100.492 141.692 100.492 141.032C100.492 140.502 100.574 140.01 100.739 139.555C100.904 139.095 101.139 138.695 101.444 138.355C101.754 138.015 102.132 137.747 102.577 137.552C103.022 137.357 103.522 137.26 104.077 137.26C104.542 137.26 104.969 137.337 105.359 137.492C105.754 137.642 106.094 137.862 106.379 138.152C106.664 138.442 106.887 138.8 107.047 139.225C107.212 139.65 107.294 140.135 107.294 140.68C107.294 140.905 107.269 141.057 107.219 141.137C107.169 141.212 107.077 141.25 106.942 141.25H101.947C101.962 141.705 102.027 142.102 102.142 142.442C102.257 142.777 102.414 143.057 102.614 143.282C102.819 143.507 103.062 143.675 103.342 143.785C103.622 143.895 103.934 143.95 104.279 143.95C104.604 143.95 104.884 143.912 105.119 143.837C105.359 143.762 105.564 143.682 105.734 143.597C105.909 143.507 106.054 143.425 106.169 143.35C106.289 143.275 106.394 143.237 106.484 143.237C106.604 143.237 106.697 143.282 106.762 143.372L107.182 143.912ZM108.626 144.122C108.626 143.987 108.651 143.86 108.701 143.74C108.751 143.62 108.819 143.515 108.904 143.425C108.994 143.335 109.099 143.265 109.219 143.215C109.339 143.16 109.469 143.132 109.609 143.132C109.744 143.132 109.871 143.16 109.991 143.215C110.111 143.265 110.216 143.335 110.306 143.425C110.396 143.515 110.466 143.62 110.516 143.74C110.571 143.86 110.599 143.987 110.599 144.122C110.599 144.262 110.571 144.392 110.516 144.512C110.466 144.632 110.396 144.737 110.306 144.827C110.216 144.917 110.111 144.987 109.991 145.038C109.871 145.088 109.744 145.113 109.609 145.113C109.469 145.113 109.339 145.088 109.219 145.038C109.099 144.987 108.994 144.917 108.904 144.827C108.819 144.737 108.751 144.632 108.701 144.512C108.651 144.392 108.626 144.262 108.626 144.122Z" fill="#919191"/>
<g clip-path="url(#clip0)">
<path d="M99.8948 87.1684H93.4367C92.3631 87.1684 91.4993 86.3046 91.4993 85.231V71.669H84.4197C82.9828 71.669 82.2643 69.9334 83.2815 68.9163L95.5598 56.6299C96.1653 56.0244 97.1582 56.0244 97.7636 56.6299L110.05 68.9163C111.067 69.9334 110.349 71.669 108.912 71.669H101.832V85.231C101.832 86.3046 100.968 87.1684 99.8948 87.1684ZM117.332 86.5226V95.5638C117.332 96.6375 116.468 97.5013 115.394 97.5013H77.9374C76.8638 97.5013 76 96.6375 76 95.5638V86.5226C76 85.4489 76.8638 84.5851 77.9374 84.5851H88.9161V85.231C88.9161 87.7254 90.9423 89.7516 93.4367 89.7516H99.8948C102.389 89.7516 104.415 87.7254 104.415 85.231V84.5851H115.394C116.468 84.5851 117.332 85.4489 117.332 86.5226ZM107.322 93.6264C107.322 92.7384 106.595 92.0119 105.707 92.0119C104.819 92.0119 104.093 92.7384 104.093 93.6264C104.093 94.5144 104.819 95.2409 105.707 95.2409C106.595 95.2409 107.322 94.5144 107.322 93.6264ZM112.488 93.6264C112.488 92.7384 111.761 92.0119 110.873 92.0119C109.985 92.0119 109.259 92.7384 109.259 93.6264C109.259 94.5144 109.985 95.2409 110.873 95.2409C111.761 95.2409 112.488 94.5144 112.488 93.6264Z" fill="#9E9E9E"/>
</g>
<defs>
<clipPath id="clip0">
<rect width="41.3315" height="41.3315" fill="white" transform="translate(76 56.168)"/>
</clipPath>
</defs>
</svg>
